<svg width="82" height="60" viewBox="0 0 82 60" fill="none" xmlns="http://www.w3.org/2000/svg">
<rect x="0.827179" y="0.707138" width="81.1715" height="58.5857" rx="11.2929" fill="#1DE698"/>
<path fill-rule="evenodd" clip-rule="evenodd" d="M35.9024 12.8643C39.8343 11.5999 44.0814 11.7261 47.9312 13.2217C48.6418 13.4978 48.9941 14.2977 48.718 15.0083C48.4419 15.7189 47.6421 16.0711 46.9315 15.7951C43.6721 14.5288 40.0764 14.4219 36.7476 15.4924C33.4187 16.5629 30.5593 18.7456 28.6489 21.6744C26.7386 24.6031 25.8935 28.0998 26.2555 31.5777C26.6175 35.0556 28.1646 38.3033 30.6371 40.7758C33.1097 43.2484 36.3573 44.7954 39.8353 45.1574C43.3132 45.5194 46.8098 44.6744 49.7386 42.764C52.6673 40.8537 54.85 37.9942 55.9205 34.6654C56.991 31.3366 56.8842 27.7408 55.6179 24.4815C55.3418 23.7709 55.6941 22.971 56.4047 22.6949C57.1153 22.4189 57.9151 22.7711 58.1912 23.4817C59.6869 27.3316 59.8131 31.5787 58.5487 35.5106C57.2842 39.4424 54.7061 42.8199 51.2468 45.0763C47.7875 47.3327 43.6574 48.3309 39.5494 47.9033C35.4415 47.4757 31.6055 45.6484 28.685 42.7279C25.7645 39.8075 23.9372 35.9715 23.5096 31.8635C23.0821 27.7555 24.0802 23.6254 26.3366 20.1661C28.5931 16.7068 31.9705 14.1287 35.9024 12.8643ZM54.0581 17.3549C54.5971 17.8939 54.5971 18.7679 54.0581 19.307L45.605 27.76C45.9545 28.4176 46.1526 29.168 46.1526 29.9647C46.1526 32.5628 44.0464 34.6689 41.4483 34.6689C38.8502 34.6689 36.744 32.5628 36.744 29.9647C36.744 27.3666 38.8502 25.2604 41.4483 25.2604C42.2449 25.2604 42.9953 25.4584 43.6529 25.8079L52.106 17.3549C52.645 16.8158 53.519 16.8158 54.0581 17.3549ZM42.6483 28.4357C42.3179 28.176 41.9012 28.0211 41.4483 28.0211C40.3749 28.0211 39.5047 28.8913 39.5047 29.9647C39.5047 31.0381 40.3749 31.9082 41.4483 31.9082C42.5217 31.9082 43.3919 31.0381 43.3919 29.9647C43.3919 29.5118 43.237 29.0951 42.9773 28.7647C42.9147 28.7203 42.855 28.67 42.799 28.614C42.7429 28.5579 42.6927 28.4982 42.6483 28.4357Z" fill="#171A1E"/>
</svg>
