<svg width="82" height="60" viewBox="0 0 82 60" fill="none" xmlns="http://www.w3.org/2000/svg">
<rect x="0.225418" y="0.707138" width="81.1715" height="58.5857" rx="11.2929" fill="#FF8692"/>
<path fill-rule="evenodd" clip-rule="evenodd" d="M27.5154 14.7607C26.9999 14.7607 26.5056 14.9655 26.1411 15.33C25.7766 15.6945 25.5718 16.1888 25.5718 16.7043V23.3522C25.5718 23.8676 25.7766 24.362 26.1411 24.7265C26.5056 25.091 26.9999 25.2957 27.5154 25.2957H30.8394C31.6017 25.2957 32.2197 25.9137 32.2197 26.6761C32.2197 27.4384 31.6017 28.0564 30.8394 28.0564H27.5154C26.2678 28.0564 25.0712 27.5608 24.189 26.6786C23.3068 25.7964 22.8111 24.5998 22.8111 23.3522V16.7043C22.8111 15.4566 23.3068 14.2601 24.189 13.3779C25.0712 12.4957 26.2678 12 27.5154 12H54.1069C55.3545 12 56.5511 12.4957 57.4333 13.3779C58.3155 14.2601 58.8111 15.4566 58.8111 16.7043V23.3522C58.8111 24.5998 58.3155 25.7964 57.4333 26.6786C56.5511 27.5608 55.3545 28.0564 54.1069 28.0564H50.7829C50.0206 28.0564 49.4026 27.4384 49.4026 26.6761C49.4026 25.9137 50.0206 25.2957 50.7829 25.2957H54.1069C54.6223 25.2957 55.1167 25.091 55.4812 24.7265C55.8457 24.362 56.0504 23.8676 56.0504 23.3522V16.7043C56.0504 16.1888 55.8457 15.6945 55.4812 15.33C55.1167 14.9655 54.6223 14.7607 54.1069 14.7607H27.5154ZM43.2388 18.8797C43.8731 19.3026 44.0445 20.1596 43.6216 20.7939L38.4044 28.6197H45.797C46.3061 28.6197 46.7738 28.8999 47.0141 29.3487C47.2543 29.7975 47.2279 30.3421 46.9456 30.7657L40.2977 40.7375C39.8748 41.3718 39.0178 41.5432 38.3835 41.1203C37.7492 40.6975 37.5778 39.8404 38.0007 39.2061L43.2178 31.3804H35.8252C35.3162 31.3804 34.8484 31.1002 34.6082 30.6514C34.368 30.2025 34.3943 29.6579 34.6767 29.2343L41.3246 19.2626C41.7475 18.6282 42.6045 18.4568 43.2388 18.8797ZM29.459 20.0282C29.459 19.2659 30.077 18.6479 30.8394 18.6479H30.856C31.6183 18.6479 32.2363 19.2659 32.2363 20.0282C32.2363 20.7906 31.6183 21.4086 30.856 21.4086H30.8394C30.077 21.4086 29.459 20.7906 29.459 20.0282ZM24.189 33.3215C25.0712 32.4392 26.2678 31.9436 27.5154 31.9436H30.8394C31.6017 31.9436 32.2197 32.5616 32.2197 33.324C32.2197 34.0863 31.6017 34.7043 30.8394 34.7043H27.5154C26.9999 34.7043 26.5056 34.9091 26.1411 35.2736C25.7766 35.6381 25.5718 36.1324 25.5718 36.6479V43.2957C25.5718 43.8112 25.7766 44.3056 26.1411 44.6701C26.5056 45.0346 26.9999 45.2393 27.5154 45.2393H54.1069C54.6223 45.2393 55.1167 45.0346 55.4812 44.6701C55.8457 44.3056 56.0504 43.8112 56.0504 43.2957L56.0504 36.6479C56.0504 36.1324 55.8457 35.6381 55.4812 35.2736C55.1167 34.9091 54.6223 34.7043 54.1069 34.7043H50.7829C50.0206 34.7043 49.4026 34.0863 49.4026 33.324C49.4026 32.5616 50.0206 31.9436 50.7829 31.9436H54.1069C55.3545 31.9436 56.5511 32.4392 57.4333 33.3215C58.3155 34.2037 58.8111 35.4002 58.8111 36.6479L58.8111 43.2957C58.8111 44.5434 58.3155 45.74 57.4333 46.6222C56.5511 47.5044 55.3545 48 54.1069 48H27.5154C26.2678 48 25.0712 47.5044 24.189 46.6222C23.3068 45.74 22.8111 44.5434 22.8111 43.2957V36.6479C22.8111 35.4002 23.3068 34.2037 24.189 33.3215ZM29.459 39.9718C29.459 39.2095 30.077 38.5915 30.8394 38.5915H30.856C31.6183 38.5915 32.2363 39.2095 32.2363 39.9718C32.2363 40.7342 31.6183 41.3522 30.856 41.3522H30.8394C30.077 41.3522 29.459 40.7342 29.459 39.9718Z" fill="#171A1E"/>
</svg>
