<svg width="82" height="60" viewBox="0 0 82 60" fill="none" xmlns="http://www.w3.org/2000/svg">
<rect x="0.603149" y="0.707138" width="81.1715" height="58.5857" rx="11.2929" fill="#96BBFF"/>
<path fill-rule="evenodd" clip-rule="evenodd" d="M28.3717 15.0415C27.8038 15.0415 27.2592 15.2671 26.8576 15.6687C26.456 16.0703 26.2304 16.6149 26.2304 17.1828V20.8449C26.2304 21.6848 25.5496 22.3656 24.7097 22.3656C23.8698 22.3656 23.1889 21.6848 23.1889 20.8449V17.1828C23.1889 15.8083 23.7349 14.49 24.7069 13.518C25.6789 12.5461 26.9972 12 28.3717 12H32.0338C32.8737 12 33.5545 12.6809 33.5545 13.5208C33.5545 14.3607 32.8737 15.0415 32.0338 15.0415H28.3717ZM48.8233 13.5208C48.8233 12.6809 49.5041 12 50.344 12H54.0061C55.3807 12 56.6989 12.5461 57.6709 13.518C58.6429 14.49 59.1889 15.8083 59.1889 17.1828V20.8449C59.1889 21.6848 58.508 22.3656 57.6681 22.3656C56.8283 22.3656 56.1474 21.6848 56.1474 20.8449V17.1828C56.1474 16.6149 55.9218 16.0703 55.5202 15.6687C55.1186 15.2671 54.574 15.0415 54.0061 15.0415H50.344C49.5041 15.0415 48.8233 14.3607 48.8233 13.5208ZM41.1889 26.0277C38.9951 26.0277 37.2166 27.8062 37.2166 30C37.2166 32.1939 38.9951 33.9723 41.1889 33.9723C42.1605 33.9723 43.0506 33.6235 43.7409 33.0443C43.8014 32.9467 43.874 32.8545 43.9587 32.7698C44.0434 32.6851 44.1356 32.6125 44.2332 32.552C44.8124 31.8617 45.1612 30.9716 45.1612 30C45.1612 27.8062 43.3828 26.0277 41.1889 26.0277ZM47.1064 33.7669C47.8005 32.6787 48.2027 31.3863 48.2027 30C48.2027 26.1264 45.0625 22.9862 41.1889 22.9862C37.3153 22.9862 34.1751 26.1264 34.1751 30C34.1751 33.8736 37.3153 37.0139 41.1889 37.0139C42.5752 37.0139 43.8676 36.6116 44.9558 35.9175L47.4377 38.3995C48.0316 38.9934 48.9945 38.9934 49.5884 38.3995C50.1822 37.8056 50.1822 36.8427 49.5884 36.2488L47.1064 33.7669ZM24.7097 37.6344C25.5496 37.6344 26.2304 38.3152 26.2304 39.1551V42.8172C26.2304 43.3851 26.456 43.9297 26.8576 44.3313C27.2592 44.7329 27.8038 44.9585 28.3717 44.9585H32.0338C32.8737 44.9585 33.5545 45.6394 33.5545 46.4792C33.5545 47.3191 32.8737 48 32.0338 48H28.3717C26.9971 48 25.6789 47.454 24.7069 46.482C23.7349 45.51 23.1889 44.1918 23.1889 42.8172V39.1551C23.1889 38.3152 23.8698 37.6344 24.7097 37.6344ZM57.6681 37.6344C58.508 37.6344 59.1889 38.3152 59.1889 39.1551V42.8172C59.1889 44.1918 58.6429 45.51 57.6709 46.482C56.6989 47.454 55.3807 48 54.0061 48H50.344C49.5041 48 48.8233 47.3191 48.8233 46.4792C48.8233 45.6394 49.5041 44.9585 50.344 44.9585H54.0061C54.574 44.9585 55.1186 44.7329 55.5202 44.3313C55.9218 43.9297 56.1474 43.3851 56.1474 42.8172V39.1551C56.1474 38.3152 56.8283 37.6344 57.6681 37.6344Z" fill="#171A1E"/>
</svg>
